<?xml version="1.0" encoding="utf-8"?>
<!-- Generator: Adobe Illustrator 22.1.0, SVG Export Plug-In . SVG Version: 6.00 Build 0)  -->
<svg version="1.1" id="Шар_1" xmlns="http://www.w3.org/2000/svg" xmlns:xlink="http://www.w3.org/1999/xlink" x="0px" y="0px"
	 viewBox="0 0 78 68" style="enable-background:new 0 0 78 68;" xml:space="preserve">
<style type="text/css">
	.st0{opacity:0.14;fill:none;stroke:#3A04A1;stroke-width:2;stroke-miterlimit:10;}
	.st1{fill:url(#SVGID_1_);}
	.st2{fill:#FFFFFF;}
	.st3{fill:url(#SVGID_2_);}
	.st4{fill:none;stroke:#FFFFFF;stroke-miterlimit:10;}
	.st5{fill:url(#SVGID_3_);}
</style>
<g>
	<path class="st0" d="M75.2,25.1l-6.8,26.8c-1.7,6.7-8.5,10.7-15.1,9l-26.8-6.8c-6.7-1.7-10.7-8.5-9-15.1l6.8-26.8
		c1.7-6.7,8.5-10.7,15.1-9l26.8,6.8C72.8,11.6,76.8,18.4,75.2,25.1z"/>
	<linearGradient id="SVGID_1_" gradientUnits="userSpaceOnUse" x1="79.8362" y1="-10.8827" x2="-38.8304" y2="104.4506">
		<stop  offset="0" style="stop-color:#8048ED"/>
		<stop  offset="0.1932" style="stop-color:#8747EE"/>
		<stop  offset="0.4834" style="stop-color:#9C46F0"/>
		<stop  offset="0.8329" style="stop-color:#BD43F3"/>
		<stop  offset="1" style="stop-color:#D041F5"/>
	</linearGradient>
	<path class="st1" d="M62.3,42.4L41.5,63.3c-4.5,4.5-11.8,4.5-16.3,0L4.3,42.4c-4.5-4.5-4.5-11.8,0-16.3L25.2,5.3
		c4.5-4.5,11.8-4.5,16.3,0l20.9,20.9C66.8,30.7,66.8,38,62.3,42.4z"/>
	<g>
		<path class="st2" d="M31.2,27.9l4.3,4.3c0.8,0.8,0.8,2.1,0,2.9L34,36.5l1.4,1.4l1.4-1.4c1.6-1.6,1.6-4.1,0-5.7l-4.3-4.3
			c-1.6-1.6-4.1-1.6-5.7,0c0,0,0,0,0,0l-1.4,1.4c-1.6,1.6-1.6,4.1,0,5.7l1.4-1.4c-0.8-0.8-0.8-2.1,0-2.9l1.4-1.4
			C29.1,27.1,30.4,27.1,31.2,27.9z"/>
		<path class="st2" d="M41.2,35l-1.4,1.4c0.8,0.8,0.8,2.1,0,2.9l-1.4,1.4c-0.8,0.8-2.1,0.8-2.9,0l-4.3-4.3c-0.8-0.8-0.8-2.1,0-2.9
			l1.4-1.4l-1.4-1.4l-1.4,1.4c-1.6,1.6-1.6,4.1,0,5.7l4.3,4.3c1.6,1.6,4.1,1.6,5.7,0l1.4-1.4C42.7,39.1,42.7,36.6,41.2,35z"/>
	</g>
</g>
</svg>
