<?xml version="1.0" encoding="utf-8"?>
<!-- Generator: Adobe Illustrator 22.1.0, SVG Export Plug-In . SVG Version: 6.00 Build 0)  -->
<svg version="1.1" id="Шар_1" xmlns="http://www.w3.org/2000/svg" xmlns:xlink="http://www.w3.org/1999/xlink" x="0px" y="0px"
	 viewBox="0 0 71 68" style="enable-background:new 0 0 71 68;" xml:space="preserve">
<style type="text/css">
	.st0{opacity:0.14;fill:none;stroke:#3A04A1;stroke-width:2;stroke-miterlimit:10;}
	.st1{fill:url(#SVGID_1_);}
	.st2{fill:#FFFFFF;}
	.st3{fill:url(#SVGID_2_);}
	.st4{fill:none;stroke:#FFFFFF;stroke-miterlimit:10;}
	.st5{fill:url(#SVGID_3_);}
</style>
<path class="st0" d="M57.4,56.9l-27.3,3.9c-6.8,1-13.1-3.8-14.1-10.6l-3.9-27.3c-1-6.8,3.8-13.1,10.6-14.1L50,4.9
	c6.8-1,13.1,3.8,14.1,10.6L68,42.8C68.9,49.6,64.2,55.9,57.4,56.9z"/>
<linearGradient id="SVGID_1_" gradientUnits="userSpaceOnUse" x1="-14.053" y1="67.3665" x2="115.947" y2="-25.9669">
	<stop  offset="0" style="stop-color:#4CC7EE"/>
	<stop  offset="1" style="stop-color:#42DB68"/>
</linearGradient>
<path class="st1" d="M35,64.5L7.8,53.2c-5.9-2.5-8.6-9.2-6.2-15L13,10.9c2.5-5.9,9.2-8.6,15-6.2l27.2,11.4c5.9,2.5,8.6,9.2,6.2,15
	L50.1,58.4C47.6,64.2,40.9,67,35,64.5z"/>
<g>
	<circle class="st2" cx="32" cy="29.8" r="4"/>
	<path class="st2" d="M32,35.8c-6.1,0-8,4-8,4v2h16v-2C40,39.8,38.1,35.8,32,35.8z"/>
	<line class="st4" x1="22" y1="28.8" x2="22" y2="36.8"/>
	<line class="st4" x1="26" y1="32.8" x2="18" y2="32.8"/>
</g>
</svg>
