<?xml version="1.0" encoding="utf-8"?>
<!-- Generator: Adobe Illustrator 22.1.0, SVG Export Plug-In . SVG Version: 6.00 Build 0)  -->
<svg version="1.1" id="Шар_1" xmlns="http://www.w3.org/2000/svg" xmlns:xlink="http://www.w3.org/1999/xlink" x="0px" y="0px"
	 viewBox="0 0 24 23" style="enable-background:new 0 0 24 23;" xml:space="preserve">
<style type="text/css">
	.st0{fill:#FFFFFF;}
	.st1{fill:none;stroke:#FFFFFF;stroke-miterlimit:10;}
</style>
<g>
	<path class="st0" d="M9.2,4.9l4.3,4.3c0.8,0.8,0.8,2.1,0,2.9L12,13.5l1.4,1.4l1.4-1.4c1.6-1.6,1.6-4.1,0-5.7l-4.3-4.3
		C9,1.9,6.5,1.9,4.9,3.5c0,0,0,0,0,0L3.5,4.9c-1.6,1.6-1.6,4.1,0,5.7l1.4-1.4c-0.8-0.8-0.8-2.1,0-2.9l1.4-1.4
		C7.1,4.1,8.4,4.1,9.2,4.9z"/>
	<path class="st0" d="M19.2,12l-1.4,1.4c0.8,0.8,0.8,2.1,0,2.9l-1.4,1.4c-0.8,0.8-2.1,0.8-2.9,0l-4.3-4.3c-0.8-0.8-0.8-2.1,0-2.9
		l1.4-1.4L9.2,7.8L7.8,9.2c-1.6,1.6-1.6,4.1,0,5.7l4.3,4.3c1.6,1.6,4.1,1.6,5.7,0l1.4-1.4C20.7,16.1,20.7,13.6,19.2,12z"/>
</g>
</svg>
