<?xml version="1.0" encoding="utf-8"?>
<!-- Generator: Adobe Illustrator 22.1.0, SVG Export Plug-In . SVG Version: 6.00 Build 0)  -->
<svg version="1.1" id="Шар_1" xmlns="http://www.w3.org/2000/svg" xmlns:xlink="http://www.w3.org/1999/xlink" x="0px" y="0px"
	 viewBox="0 0 31 21" style="enable-background:new 0 0 31 21;" xml:space="preserve">
<style type="text/css">
	.st0{fill:#FFFFFF;}
	.st1{fill:none;stroke:#FFFFFF;stroke-miterlimit:10;}
</style>
<g>
	<g>
		<g>
			<path class="st0" d="M21.2,8.2c-3.1,0-6.3-1.2-6.3-3.4s3.2-3.4,6.3-3.4s6.3,1.2,6.3,3.4S24.3,8.2,21.2,8.2z M21.2,3.3
				c-2.8,0-4.3,1-4.3,1.4c0,0.4,1.5,1.4,4.3,1.4s4.3-1,4.3-1.4C25.6,4.4,24,3.3,21.2,3.3z"/>
		</g>
		<g>
			<path class="st0" d="M21.2,12c-3.1,0-6.3-1.2-6.3-3.4V4.8h1.9v3.9c0,0.4,1.5,1.4,4.3,1.4s4.3-1,4.3-1.4V4.8h1.9v3.9
				C27.5,10.9,24.3,12,21.2,12z"/>
		</g>
		<g>
			<path class="st0" d="M21.2,15.9c-3.1,0-6.3-1.2-6.3-3.4V8.7h1.9v3.9c0,0.4,1.5,1.4,4.3,1.4s4.3-1,4.3-1.4V8.7h1.9v3.9
				C27.5,14.7,24.3,15.9,21.2,15.9z"/>
		</g>
		<g>
			<path class="st0" d="M10.6,14.9c-3.1,0-6.3-1.2-6.3-3.4s3.2-3.4,6.3-3.4s6.3,1.2,6.3,3.4S13.7,14.9,10.6,14.9z M10.6,10.1
				c-2.8,0-4.3,1-4.3,1.4c0,0.4,1.5,1.4,4.3,1.4s4.3-1,4.3-1.4C14.9,11.1,13.4,10.1,10.6,10.1z"/>
		</g>
		<g>
			<path class="st0" d="M10.6,18.8c-3.1,0-6.3-1.2-6.3-3.4v-3.9h1.9v3.9c0,0.4,1.5,1.4,4.3,1.4s4.3-1,4.3-1.4v-3.9h1.9v3.9
				C16.9,17.6,13.7,18.8,10.6,18.8z"/>
		</g>
	</g>
	<g>
		<line class="st1" x1="5" y1="1.6" x2="5" y2="7.9"/>
		<line class="st1" x1="8.1" y1="4.7" x2="1.9" y2="4.7"/>
	</g>
</g>
</svg>
