<?xml version="1.0" encoding="utf-8"?>
<!-- Generator: Adobe Illustrator 22.1.0, SVG Export Plug-In . SVG Version: 6.00 Build 0)  -->
<svg version="1.1" id="Шар_1" xmlns="http://www.w3.org/2000/svg" xmlns:xlink="http://www.w3.org/1999/xlink" x="0px" y="0px"
	 viewBox="0 0 72 68" style="enable-background:new 0 0 72 68;" xml:space="preserve">
<style type="text/css">
	.st0{opacity:0.14;fill:none;stroke:#3A04A1;stroke-width:2;stroke-miterlimit:10;}
	.st1{fill:url(#SVGID_1_);}
	.st2{fill:#FFFFFF;}
	.st3{fill:url(#SVGID_2_);}
	.st4{fill:none;stroke:#FFFFFF;stroke-miterlimit:10;}
	.st5{fill:url(#SVGID_3_);}
</style>
<path class="st0" d="M68.6,32.2L57.9,57.7C55.3,64,48,67,41.6,64.4L16.2,53.7c-6.3-2.7-9.3-10-6.7-16.3L20.1,12
	c2.7-6.3,10-9.3,16.3-6.7L61.9,16C68.2,18.6,71.2,25.9,68.6,32.2z"/>
<linearGradient id="SVGID_1_" gradientUnits="userSpaceOnUse" x1="-36.7667" y1="678.2108" x2="93.2333" y2="584.8774" gradientTransform="matrix(0.5592 0.829 -0.829 0.5592 560.733 -331.6234)">
	<stop  offset="0" style="stop-color:#FF832A"/>
	<stop  offset="1" style="stop-color:#FF90AB"/>
</linearGradient>
<path class="st1" d="M7.7,56.2L1.9,27.3c-1.2-6.2,2.8-12.3,9-13.5L39.9,8c6.2-1.2,12.3,2.8,13.5,9L59.2,46c1.2,6.2-2.8,12.3-9,13.5
	l-28.9,5.8C15,66.5,8.9,62.5,7.7,56.2z"/>
<g>
	<g>
		<path class="st2" d="M37.2,35.2c-3.1,0-6.3-1.2-6.3-3.4s3.2-3.4,6.3-3.4s6.3,1.2,6.3,3.4C43.5,34,40.3,35.2,37.2,35.2z M37.2,30.3
			c-2.8,0-4.3,1-4.3,1.4c0,0.4,1.5,1.4,4.3,1.4s4.3-1,4.3-1.4C41.6,31.4,40,30.3,37.2,30.3z"/>
	</g>
	<g>
		<path class="st2" d="M37.2,39c-3.1,0-6.3-1.2-6.3-3.4v-3.9h1.9v3.9c0,0.4,1.5,1.4,4.3,1.4s4.3-1,4.3-1.4v-3.9h1.9v3.9
			C43.5,37.9,40.3,39,37.2,39z"/>
	</g>
	<g>
		<path class="st2" d="M37.2,42.9c-3.1,0-6.3-1.2-6.3-3.4v-3.9h1.9v3.9c0,0.4,1.5,1.4,4.3,1.4s4.3-1,4.3-1.4v-3.9h1.9v3.9
			C43.5,41.7,40.3,42.9,37.2,42.9z"/>
	</g>
	<g>
		<path class="st2" d="M26.6,41.9c-3.1,0-6.3-1.2-6.3-3.4c0-2.2,3.2-3.4,6.3-3.4s6.3,1.2,6.3,3.4C32.9,40.8,29.7,41.9,26.6,41.9z
			 M26.6,37.1c-2.8,0-4.3,1-4.3,1.4c0,0.4,1.5,1.4,4.3,1.4s4.3-1,4.3-1.4C30.9,38.1,29.4,37.1,26.6,37.1z"/>
	</g>
	<g>
		<path class="st2" d="M26.6,45.8c-3.1,0-6.3-1.2-6.3-3.4v-3.9h1.9v3.9c0,0.4,1.5,1.4,4.3,1.4s4.3-1,4.3-1.4v-3.9h1.9v3.9
			C32.9,44.6,29.7,45.8,26.6,45.8z"/>
	</g>
</g>
<g>
	<line class="st4" x1="21" y1="28.6" x2="21" y2="34.9"/>
	<line class="st4" x1="24.1" y1="31.7" x2="17.9" y2="31.7"/>
</g>
</svg>
