<?xml version="1.0" encoding="utf-8"?>
<!-- Generator: Adobe Illustrator 23.0.0, SVG Export Plug-In . SVG Version: 6.00 Build 0)  -->
<svg version="1.1" id="Шар_1" xmlns="http://www.w3.org/2000/svg" xmlns:xlink="http://www.w3.org/1999/xlink" x="0px" y="0px"
	 viewBox="0 0 200.17 179.15" style="enable-background:new 0 0 200.17 179.15;" xml:space="preserve">
<style type="text/css">
	.st0{fill:url(#SVGID_1_);}
	.st1{fill:url(#SVGID_2_);}
	.st2{fill:url(#SVGID_3_);}
	.st3{fill:url(#SVGID_4_);}
</style>
<linearGradient id="SVGID_1_" gradientUnits="userSpaceOnUse" x1="6.0158" y1="200.7047" x2="85.62" y2="110.4867">
	<stop  offset="0" style="stop-color:#8E52E8"/>
	<stop  offset="1" style="stop-color:#6B35C6"/>
</linearGradient>
<path class="st0" d="M148.8,168.25c1.15-0.33,2.31-0.65,3.45-0.97c11.8-3.31,22.47-10.72,29.47-20.8
	c16.39-23.59,6.46-53.04-0.47-78.28c-6.3-22.94-17.63-46.96-39.49-58.72C122.16-1.08,97.37,0.4,76.4,5.61
	c-27.52,6.84-58.56,23.9-64.9,53.99c-3.89,18.47-1.51,39.85,2.79,58.12c3.95,16.79,11.68,33.03,25.82,43.54
	C72.4,185.28,112.98,178.36,148.8,168.25z"/>
</svg>
