<?xml version="1.0" encoding="utf-8"?>
<!-- Generator: Adobe Illustrator 23.0.0, SVG Export Plug-In . SVG Version: 6.00 Build 0)  -->
<svg version="1.1" id="Шар_1" xmlns="http://www.w3.org/2000/svg" xmlns:xlink="http://www.w3.org/1999/xlink" x="0px" y="0px"
	 viewBox="0 0 200.17 179.15" style="enable-background:new 0 0 200.17 179.15;" xml:space="preserve">
<style type="text/css">
	.st0{fill:url(#SVGID_1_);}
	.st1{fill:url(#SVGID_2_);}
	.st2{fill:url(#SVGID_3_);}
	.st3{fill:url(#SVGID_4_);}
</style>
<linearGradient id="SVGID_1_" gradientUnits="userSpaceOnUse" x1="20.0304" y1="181.8229" x2="89.1704" y2="103.4642">
	<stop  offset="0" style="stop-color:#8E52E8"/>
	<stop  offset="1" style="stop-color:#6B35C6"/>
</linearGradient>
<path class="st0" d="M105.79,175.68c0.06-0.01,0.12-0.02,0.19-0.03c31.01-4.44,62.87-33.15,74.56-61.38
	c12.65-30.55-2.53-61.12-24.05-83.15c-9.74-9.97-17.81-17.19-30.31-23.76C105.4-3.57,84.2,7.01,70.73,16.1
	c-12.69,8.57-25.9,18.08-36.96,28.72C8.09,69.5,10.06,99.11,32.03,126.04c1.21,1.48,2.46,2.94,3.73,4.37
	C53.39,150.27,75.31,179.91,105.79,175.68z"/>
</svg>
