<?xml version="1.0" encoding="utf-8"?>
<!-- Generator: Adobe Illustrator 23.0.0, SVG Export Plug-In . SVG Version: 6.00 Build 0)  -->
<svg version="1.1" id="Шар_1" xmlns="http://www.w3.org/2000/svg" xmlns:xlink="http://www.w3.org/1999/xlink" x="0px" y="0px"
	 viewBox="0 0 200.17 179.15" style="enable-background:new 0 0 200.17 179.15;" xml:space="preserve">
<style type="text/css">
	.st0{fill:url(#SVGID_1_);}
	.st1{fill:url(#SVGID_2_);}
	.st2{fill:url(#SVGID_3_);}
	.st3{fill:url(#SVGID_4_);}
</style>
<linearGradient id="SVGID_1_" gradientUnits="userSpaceOnUse" x1="14.6648" y1="195.3483" x2="92.9822" y2="106.5885">
	<stop  offset="0" style="stop-color:#8E52E8"/>
	<stop  offset="1" style="stop-color:#6B35C6"/>
</linearGradient>
<path class="st0" d="M191.37,99.58c-0.36-4.89-0.9-9.82-1.44-14.78c-1.21-11.12-3.22-22.22-6.53-32.91
	c-6.04-19.52-17.14-36-36.95-43.56C128.83,1.59,108.34-0.6,89.8,2.98C72.53,6.3,56.41,14.69,42.76,25.64
	C29.94,35.94,18.24,47.18,12.45,63.01c-20.06,54.87,37.75,111.33,90.02,114.7c4.19,0.27,8.4,0.22,12.58-0.19
	c24.66-2.42,51.1-8.58,66.18-30.03C191.7,132.59,192.6,116.36,191.37,99.58z"/>
</svg>
