<?xml version="1.0" encoding="utf-8"?>
<!-- Generator: Adobe Illustrator 23.0.0, SVG Export Plug-In . SVG Version: 6.00 Build 0)  -->
<svg version="1.1" id="Шар_1" xmlns="http://www.w3.org/2000/svg" xmlns:xlink="http://www.w3.org/1999/xlink" x="0px" y="0px"
	 viewBox="0 0 200.17 179.15" style="enable-background:new 0 0 200.17 179.15;" xml:space="preserve">
<style type="text/css">
	.st0{fill:url(#SVGID_1_);}
	.st1{fill:url(#SVGID_2_);}
	.st2{fill:url(#SVGID_3_);}
	.st3{fill:url(#SVGID_4_);}
</style>
<linearGradient id="SVGID_1_" gradientUnits="userSpaceOnUse" x1="5.6396" y1="194.4447" x2="84.8317" y2="104.6937">
	<stop  offset="0" style="stop-color:#8E52E8"/>
	<stop  offset="1" style="stop-color:#6B35C6"/>
</linearGradient>
<path class="st0" d="M12.94,92c-0.82-8.32-0.89-16.48-0.25-23.96c2.16-25.38,18.02-47.26,41.95-56.34c1.01-0.38,2.03-0.74,3.06-1.08
	c16.08-5.29,35.05-6.5,51.89-6.21c14.93,0.26,30.07,3.05,43.14,10.25c18.51,10.2,26.39,26.54,31.05,46.27
	c4.86,20.54,6.59,43.5-1.23,63.54c-14.21,36.42-43.53,47.97-66.62,49.74c-28.51,2.19-62.1-0.91-81.66-24.31
	C21.88,135.08,15.01,113.03,12.94,92z"/>
</svg>
