<?xml version="1.0" encoding="utf-8"?>
<!-- Generator: Adobe Illustrator 22.1.0, SVG Export Plug-In . SVG Version: 6.00 Build 0)  -->
<svg version="1.1" id="Шар_1" xmlns="http://www.w3.org/2000/svg" xmlns:xlink="http://www.w3.org/1999/xlink" x="0px" y="0px"
	 viewBox="0 0 490 376" style="enable-background:new 0 0 490 376;" xml:space="preserve">
<style type="text/css">
	.st0{fill:url(#XMLID_6_);}
	.st1{fill:#FFDE39;}
	.st2{fill:#FEC632;}
	.st3{fill:url(#SVGID_1_);}
	.st4{opacity:0.11;fill:#0B0244;}
	.st5{fill:#312A91;}
	.st6{fill:url(#SVGID_2_);}
	.st7{fill:#5503BA;}
	.st8{opacity:0.5;fill:url(#SVGID_3_);}
	.st9{opacity:0.9;fill:#42E8E0;}
	.st10{opacity:0.3;fill:#42E8E0;}
	.st11{opacity:0.2;fill:#42E8E0;}
	.st12{opacity:0.9;}
	.st13{fill:#42E8E0;}
	.st14{fill:#15FFFF;}
	.st15{fill:#03D7FB;}
	.st16{fill:#6EA6FF;}
	.st17{opacity:0.37;fill:url(#SVGID_4_);}
	.st18{opacity:0.37;fill:url(#SVGID_5_);}
	.st19{opacity:0.37;fill:url(#SVGID_6_);}
	.st20{fill:url(#SVGID_7_);}
	.st21{fill:url(#SVGID_8_);}
	.st22{fill:url(#SVGID_9_);}
	.st23{fill:#E5DDDC;}
	.st24{fill:#6B6B6B;}
	.st25{fill:url(#SVGID_10_);}
	.st26{fill:#E6B4AC;}
	.st27{fill:#2D1485;}
	.st28{fill:url(#SVGID_11_);}
	.st29{fill:url(#SVGID_12_);}
	.st30{fill:#FFC8BF;}
	.st31{fill:url(#SVGID_13_);}
	.st32{fill:url(#SVGID_14_);}
	.st33{fill:url(#SVGID_15_);}
	.st34{fill:#FFFFFF;}
	.st35{fill:#A88FFF;}
	.st36{fill:#1D2F3D;}
	.st37{fill:#81BBE6;}
	.st38{fill:#131F29;}
	.st39{fill:url(#SVGID_16_);}
	.st40{fill:url(#SVGID_17_);}
	.st41{fill:#EF7C73;}
	.st42{fill:url(#SVGID_18_);}
</style>
<g>
	<g id="XMLID_1_">
		
			<linearGradient id="XMLID_6_" gradientUnits="userSpaceOnUse" x1="1205.3367" y1="234.8919" x2="357.8279" y2="135.5289" gradientTransform="matrix(0.9286 -2.408345e-02 -9.237912e-02 1.0792 -125.8484 132.2415)">
			<stop  offset="0" style="stop-color:#9A24A4"/>
			<stop  offset="1" style="stop-color:#FF2AF4"/>
		</linearGradient>
		<path id="XMLID_2_" class="st0" d="M330.3,373.1c-3.7,0.1-7.4-0.7-10.6-2.3l-121.9-71.6c-4-2.4-6-5.7-5.8-9.4
			c0.2-3.2,2.2-6.3,5.4-8.5l0.1,0l137.5-78.6c7.6-4.4,16.4-4.9,23.5-1.3l121.9,71.7c3.3,2.5,5,6.4,4.4,10.3
			c-0.5,3.3-2.4,6.1-5.5,7.9l-136.5,78.2C338.8,371.8,334.5,373,330.3,373.1z M198.1,282.7c-2.7,1.8-4.4,4.4-4.5,7
			c-0.2,3.1,1.6,6,5.1,8.1l121.9,71.5c6.5,3.3,14.6,2.8,21.5-1.3l136.5-78.2c2.6-1.5,4.2-3.8,4.5-6.5c0.5-3.4-1-6.8-3.8-8.9
			l-121.8-71.6c-6.6-3.3-14.8-2.9-21.9,1.3L198.1,282.7z"/>
	</g>
	<g>
		<path class="st1" d="M259.3,61.2c0,8.5-6.9,15.4-15.4,15.4c-0.6,0-1.2,0-1.8-0.1c-1-0.1-1.9-0.3-2.8-0.6c-1.9-0.6-3.6-1.5-5-2.7
			c-0.5-0.4-0.9-0.8-1.4-1.3c-0.5-0.5-1-1.1-1.4-1.7c-0.8-1.1-1.4-2.3-1.9-3.6c-0.6-1.7-1-3.5-1-5.4c0-8.5,6.9-15.4,15.4-15.4
			c0.2,0,0.5,0,0.7,0c1.4,0.1,2.7,0.3,4,0.7c0.7,0.2,1.4,0.5,2.1,0.8c0.6,0.3,1.1,0.6,1.6,0.9c1.6,1.1,3,2.4,4.1,4
			c0.6,0.8,1,1.6,1.4,2.5C258.8,56.7,259.3,58.9,259.3,61.2z"/>
		<circle class="st2" cx="244" cy="61.2" r="12.6"/>
		<path class="st1" d="M254.9,61.2c0,5.5-4.1,10.1-9.5,10.8c-0.5,0.1-0.9,0.1-1.4,0.1c-0.6,0-1.2-0.1-1.8-0.1
			c-2-0.3-3.8-1.2-5.3-2.4c-0.5-0.4-0.9-0.8-1.3-1.3c-0.5-0.6-0.9-1.2-1.3-1.9c-0.7-1.4-1.2-2.9-1.2-4.5c0-0.2,0-0.3,0-0.5
			c0-5,3.4-9.3,8.1-10.5c0.9-0.2,1.8-0.4,2.8-0.4c0.6,0,1.3,0.1,1.9,0.2c0.8,0.1,1.5,0.3,2.2,0.6c0.6,0.2,1.1,0.5,1.7,0.8
			c1.7,1,3,2.5,3.9,4.3c0.5,0.9,0.8,2,1,3.1C254.8,59.8,254.9,60.5,254.9,61.2z"/>
	</g>
	<g>
		<path class="st1" d="M402.2,86c0,10.7-8.6,19.3-19.3,19.3c-0.8,0-1.6,0-2.3-0.1c-1.2-0.1-2.4-0.4-3.5-0.8
			c-2.3-0.7-4.5-1.9-6.3-3.4c-0.6-0.5-1.2-1-1.7-1.6c-0.6-0.7-1.2-1.4-1.8-2.1c-1-1.4-1.8-2.9-2.4-4.5c-0.8-2.1-1.2-4.4-1.2-6.7
			c0-10.7,8.6-19.3,19.3-19.3c0.3,0,0.6,0,0.9,0c1.8,0.1,3.5,0.4,5.1,0.9c0.9,0.3,1.8,0.6,2.6,1.1c0.7,0.3,1.4,0.7,2,1.2
			c2,1.3,3.8,3,5.2,5c0.7,1,1.3,2,1.8,3.1C401.6,80.4,402.2,83.1,402.2,86z"/>
		<circle class="st2" cx="382.9" cy="86" r="15.8"/>
		<path class="st1" d="M396.6,86c0,7-5.2,12.7-11.9,13.6c-0.6,0.1-1.2,0.1-1.8,0.1c-0.8,0-1.5-0.1-2.3-0.2c-2.5-0.4-4.8-1.5-6.6-3.1
			c-0.6-0.5-1.1-1.1-1.6-1.7c-0.6-0.7-1.2-1.5-1.6-2.4c-0.9-1.7-1.5-3.7-1.6-5.7c0-0.2,0-0.4,0-0.7c0-6.3,4.3-11.7,10.1-13.2
			c1.1-0.3,2.3-0.5,3.5-0.5c0.8,0,1.6,0.1,2.4,0.2c1,0.2,1.9,0.4,2.8,0.8c0.7,0.3,1.4,0.7,2.1,1.1c2.1,1.3,3.8,3.2,4.9,5.4
			c0.6,1.2,1.1,2.5,1.3,3.8C396.5,84.4,396.6,85.2,396.6,86z"/>
	</g>
	<g>
		<path class="st1" d="M486.6,193.5c0,7.2-5.8,13.1-13.1,13.1c-0.5,0-1,0-1.6-0.1c-0.8-0.1-1.6-0.3-2.4-0.5c-1.6-0.5-3-1.3-4.3-2.3
			c-0.4-0.3-0.8-0.7-1.2-1.1c-0.4-0.5-0.8-0.9-1.2-1.5c-0.7-0.9-1.2-2-1.6-3.1c-0.5-1.4-0.8-2.9-0.8-4.5c0-7.2,5.8-13.1,13.1-13.1
			c0.2,0,0.4,0,0.6,0c1.2,0.1,2.3,0.3,3.4,0.6c0.6,0.2,1.2,0.4,1.8,0.7c0.5,0.2,0.9,0.5,1.4,0.8c1.4,0.9,2.6,2,3.5,3.4
			c0.5,0.7,0.9,1.4,1.2,2.1C486.2,189.7,486.6,191.5,486.6,193.5z"/>
		<circle class="st2" cx="473.6" cy="193.5" r="10.7"/>
		<path class="st1" d="M482.8,193.5c0,4.7-3.5,8.6-8,9.2c-0.4,0.1-0.8,0.1-1.2,0.1c-0.5,0-1,0-1.5-0.1c-1.7-0.3-3.2-1-4.5-2.1
			c-0.4-0.3-0.8-0.7-1.1-1.1c-0.4-0.5-0.8-1-1.1-1.6c-0.6-1.2-1-2.5-1-3.9c0-0.1,0-0.3,0-0.4c0-4.3,2.9-7.9,6.9-8.9
			c0.8-0.2,1.6-0.3,2.4-0.3c0.5,0,1.1,0,1.6,0.1c0.7,0.1,1.3,0.3,1.9,0.5c0.5,0.2,1,0.4,1.4,0.7c1.4,0.9,2.6,2.1,3.3,3.6
			c0.4,0.8,0.7,1.7,0.9,2.6C482.8,192.4,482.8,192.9,482.8,193.5z"/>
	</g>
	<linearGradient id="SVGID_1_" gradientUnits="userSpaceOnUse" x1="425.4118" y1="234.9919" x2="293.8508" y2="293.3535">
		<stop  offset="0" style="stop-color:#2B237C"/>
		<stop  offset="1" style="stop-color:#180DD1"/>
	</linearGradient>
	<path class="st3" d="M350.3,200.6c-4.5-2.6-10.7-3.8-17.1-3.6v154.1c6.9-0.2,14.1-1.9,19.7-5.2l118.8-68.6c6.3-3.6,9.3-8.3,9-12.7
		v-23.2H421L350.3,200.6z"/>
	<path class="st4" d="M247.6,338.6L120.1,277c-9.7-4.7-9.9-12.8-0.4-18.1L223,201c9.5-5.3,25-5.8,34.7-1.1l127.5,61.6
		c9.7,4.7,9.9,12.8,0.4,18.1l-103.3,57.9C272.8,342.8,257.3,343.3,247.6,338.6z"/>
	<path class="st5" d="M480.8,264.6v-23.2H421l-70.7-40.8c-9.4-5.4-25.9-4.8-36.8,1.5l-68,39.3h-59.8v24.5h0
		c-0.3,3.7,1.8,7.2,6.3,9.9l124.1,71.7c9.4,5.4,25.9,4.8,36.8-1.5l118.8-68.6C478.1,273.6,481.1,268.9,480.8,264.6z"/>
	<linearGradient id="SVGID_2_" gradientUnits="userSpaceOnUse" x1="120.4058" y1="274.0018" x2="415.5442" y2="274.0018">
		<stop  offset="0" style="stop-color:#2B237C"/>
		<stop  offset="1" style="stop-color:#180DD1"/>
	</linearGradient>
	<path class="st6" d="M480.8,264.6v-23.2H421l-70.7-40.8c-9.4-5.4-25.9-4.8-36.8,1.5l-68,39.3h-59.8v24.5h0
		c-0.3,3.7,1.8,7.2,6.3,9.9l124.1,71.7c9.4,5.4,25.9,4.8,36.8-1.5l118.8-68.6C478.1,273.6,481.1,268.9,480.8,264.6z"/>
	<path class="st7" d="M316.1,322.9L192,251.3c-9.4-5.4-8.2-15,2.6-21.2l118.8-68.6c10.9-6.3,27.4-7,36.8-1.5l124.1,71.7
		c9.4,5.4,8.2,15-2.6,21.2l-118.8,68.6C342.1,327.7,325.6,328.4,316.1,322.9z"/>
	<linearGradient id="SVGID_3_" gradientUnits="userSpaceOnUse" x1="185.6443" y1="241.4019" x2="336.2871" y2="241.4019">
		<stop  offset="0" style="stop-color:#42E8E0"/>
		<stop  offset="0.1022" style="stop-color:#3CCACE"/>
		<stop  offset="0.3445" style="stop-color:#2F87A5"/>
		<stop  offset="0.564" style="stop-color:#255385"/>
		<stop  offset="0.7534" style="stop-color:#1E2D6E"/>
		<stop  offset="0.905" style="stop-color:#1A1660"/>
		<stop  offset="1" style="stop-color:#180D5B"/>
	</linearGradient>
	<path class="st8" d="M320.3,322.9l-124.1-71.7c-9.4-5.4-11.7-13.4,2.6-21.2l118.8-68.6c5.4-3.1,12.1-4.8,18.6-5.1
		c-7.8-0.4-16.3,1.4-22.8,5.1L194.7,230c-10.9,6.3-12.1,15.8-2.6,21.2l124.1,71.7c4.8,2.8,11.4,3.9,18.2,3.6
		C329.1,326.3,324.1,325.1,320.3,322.9z"/>
	<g>
		<g>
			<path class="st9" d="M324.5,201.4c0,1.7,1.4,3,3,3s3-1.4,3-3c0-1.7-1.4-3-3-3S324.5,199.8,324.5,201.4z"/>
			<path class="st10" d="M364.1,177.2c0,1,0.8,1.9,1.9,1.9c1,0,1.9-0.8,1.9-1.9s-0.8-1.9-1.9-1.9C365,175.4,364.1,176.2,364.1,177.2
				z"/>
			<circle class="st11" cx="352.8" cy="155.9" r="1.9"/>
			<path class="st11" d="M295.3,148.9c0,0.7,0.5,1.2,1.2,1.2c0.7,0,1.2-0.5,1.2-1.2c0-0.7-0.5-1.2-1.2-1.2
				C295.8,147.7,295.3,148.2,295.3,148.9z"/>
			<circle class="st11" cx="301" cy="142.6" r="2.5"/>
			<path class="st11" d="M356.8,152.1c0,0.7,0.6,1.2,1.2,1.2c0.7,0,1.2-0.6,1.2-1.2c0-0.7-0.6-1.2-1.2-1.2
				C357.4,150.8,356.8,151.4,356.8,152.1z"/>
			<path class="st10" d="M358.3,211.7c0,1,0.8,1.9,1.9,1.9c1,0,1.9-0.8,1.9-1.9s-0.8-1.9-1.9-1.9
				C359.2,209.8,358.3,210.6,358.3,211.7z"/>
			<circle class="st11" cx="347.1" cy="190.4" r="1.9"/>
			<path class="st11" d="M351.1,186.5c0,0.7,0.6,1.2,1.2,1.2c0.7,0,1.2-0.6,1.2-1.2c0-0.7-0.6-1.2-1.2-1.2
				C351.6,185.3,351.1,185.8,351.1,186.5z"/>
		</g>
		<g>
			<path class="st9" d="M334.5,171c-0.4,1.4-1.8,2.3-3.3,2c-1.4-0.4-2.3-1.8-2-3.3c0.4-1.4,1.8-2.3,3.3-2
				C334,168.1,334.8,169.6,334.5,171z"/>
			<path class="st10" d="M305.7,141.5c-0.2,0.9-1.1,1.4-2,1.2c-0.9-0.2-1.4-1.1-1.2-2c0.2-0.9,1.1-1.4,2-1.2
				S305.9,140.6,305.7,141.5z"/>
			<path class="st11" d="M321.7,126.1c-0.2,0.9-1.2,1.5-2.1,1.2c-0.9-0.2-1.5-1.2-1.2-2.1c0.2-0.9,1.2-1.5,2.1-1.2
				S322,125.1,321.7,126.1z"/>
			<path class="st11" d="M371.1,132.3c-0.1,0.6-0.7,0.9-1.3,0.8c-0.6-0.1-0.9-0.7-0.8-1.3c0.1-0.6,0.7-0.9,1.3-0.8
				C370.9,131.1,371.3,131.7,371.1,132.3z"/>
			<path class="st11" d="M369.8,126.1c-0.3,1.2-1.5,1.9-2.7,1.6c-1.2-0.3-1.9-1.5-1.6-2.7c0.3-1.2,1.5-1.9,2.7-1.6
				C369.4,123.7,370.1,124.9,369.8,126.1z"/>
			<path class="st11" d="M317.5,121.5c-0.1,0.6-0.7,0.9-1.3,0.8c-0.6-0.1-0.9-0.7-0.8-1.3c0.1-0.6,0.7-0.9,1.3-0.8
				C317.3,120.3,317.6,120.9,317.5,121.5z"/>
			<path class="st11" d="M304.3,212.9c0.5,0.4,1.3,0.4,1.7-0.1c0.4-0.5,0.4-1.3-0.1-1.7c-0.5-0.4-1.3-0.4-1.7,0.1
				C303.8,211.7,303.8,212.4,304.3,212.9z"/>
			<path class="st11" d="M301.5,206.4c1.1,0.9,2.7,0.8,3.6-0.3c0.9-1.1,0.8-2.7-0.3-3.6c-1.1-0.9-2.7-0.8-3.6,0.3
				C300.3,203.8,300.5,205.4,301.5,206.4z"/>
			
				<ellipse transform="matrix(0.4993 -0.8664 0.8664 0.4993 -21.9914 364.1418)" class="st10" cx="304.1" cy="201.1" rx="1.7" ry="1.7"/>
			<path class="st11" d="M304,177.9c0.5,0.8,0.4,1.8-0.4,2.4c-0.8,0.5-1.8,0.4-2.4-0.4c-0.5-0.8-0.4-1.8,0.4-2.4
				C302.4,177,303.5,177.1,304,177.9z"/>
			<path class="st11" d="M297.8,178.2c0.3,0.5,0.2,1.2-0.3,1.5c-0.5,0.3-1.2,0.2-1.5-0.3c-0.3-0.5-0.2-1.2,0.3-1.5
				S297.4,177.7,297.8,178.2z"/>
			<g class="st12">
				<path class="st13" d="M341.8,232.4c-0.4,1.4-1.8,2.3-3.3,2c-1.4-0.4-2.3-1.8-2-3.3c0.4-1.4,1.8-2.3,3.3-2
					C341.3,229.4,342.2,230.9,341.8,232.4z"/>
				<path class="st13" d="M334,217.7c-0.3,1-1.3,1.6-2.3,1.4s-1.6-1.3-1.4-2.3c0.3-1,1.3-1.6,2.3-1.4
					C333.7,215.6,334.3,216.7,334,217.7z"/>
			</g>
		</g>
	</g>
	<g>
		<path class="st14" d="M316.5,165.3c3-8,9.9-10.7,16.8-8.1c6.9,2.6,10.3,9.1,7.3,17.2c-3,8.1-9.9,10.7-16.8,8.1
			C317,179.9,313.5,173.5,316.5,165.3z M359.7,167.8l11,4.1l-48,33.8l-11-4.1L359.7,167.8z M331.4,170.9c1.6-4.3,0.7-6.2-0.7-6.7
			c-1.4-0.5-3.3,0.2-5,4.6c-1.6,4.3-0.7,6.2,0.7,6.7C327.9,176,329.8,175.3,331.4,170.9z M341.8,199.2c3-8,9.9-10.7,16.8-8.1
			c6.9,2.6,10.3,9.1,7.3,17.2c-3,8.1-9.9,10.7-16.8,8.1C342.2,213.8,338.8,207.3,341.8,199.2z M356.7,204.8c1.6-4.3,0.7-6.2-0.7-6.7
			c-1.4-0.5-3.3,0.2-5,4.6c-1.6,4.3-0.7,6.2,0.7,6.7C353.2,209.9,355.1,209.1,356.7,204.8z"/>
		<g>
			<path class="st15" d="M312.4,163.8c3-8,9.9-10.7,16.8-8.1c6.9,2.6,10.3,9.1,7.3,17.2c-3,8.1-9.9,10.7-16.8,8.1
				C312.9,178.4,309.4,171.9,312.4,163.8z M355.7,166.3l11,4.1l-48,33.8l-11-4.1L355.7,166.3z M327.4,169.4c1.6-4.3,0.7-6.2-0.7-6.7
				c-1.4-0.5-3.3,0.2-5,4.6c-1.6,4.3-0.7,6.2,0.7,6.7C323.8,174.5,325.7,173.7,327.4,169.4z M337.7,197.7c3-8,9.9-10.7,16.8-8.1
				c6.9,2.6,10.3,9.1,7.3,17.2c-3,8.1-9.9,10.7-16.8,8.1C338.2,212.3,334.7,205.8,337.7,197.7z M352.7,203.3
				c1.6-4.3,0.7-6.2-0.7-6.7c-1.4-0.5-3.3,0.2-5,4.6c-1.6,4.3-0.7,6.2,0.7,6.7C349.1,208.4,351,207.6,352.7,203.3z"/>
		</g>
		<polygon class="st16" points="364.6,165.4 355.6,166.3 370.6,171.9 		"/>
	</g>
	<g>
		<g>
			<g>
				
					<linearGradient id="SVGID_4_" gradientUnits="userSpaceOnUse" x1="-288.3702" y1="-2411.2793" x2="-434.4745" y2="-2265.175" gradientTransform="matrix(-0.487 -0.8453 0.5 -0.866 1292.4894 -2152.5229)">
					<stop  offset="3.802083e-03" style="stop-color:#FF43FF;stop-opacity:0"/>
					<stop  offset="6.332707e-02" style="stop-color:#F45BFF;stop-opacity:7.484007e-02"/>
					<stop  offset="0.1872" style="stop-color:#E088FF;stop-opacity:0.2306"/>
					<stop  offset="0.3121" style="stop-color:#D0ADFF;stop-opacity:0.3876"/>
					<stop  offset="0.4361" style="stop-color:#C3CAFF;stop-opacity:0.5436"/>
					<stop  offset="0.5592" style="stop-color:#BADFFF;stop-opacity:0.6983"/>
					<stop  offset="0.6807" style="stop-color:#B5EBFF;stop-opacity:0.8511"/>
					<stop  offset="0.7992" style="stop-color:#B3EFFF"/>
				</linearGradient>
				<polygon class="st17" points="306.2,115.5 342,177.9 306.2,240.1 271.2,179.4 				"/>
				
					<linearGradient id="SVGID_5_" gradientUnits="userSpaceOnUse" x1="-2069.0737" y1="-105.236" x2="-1971.6316" y2="-7.7939" gradientTransform="matrix(0.51 -0.8827 1 0 1427.0518 -1563.2714)">
					<stop  offset="3.802083e-03" style="stop-color:#FF43FF;stop-opacity:0"/>
					<stop  offset="2.128215e-02" style="stop-color:#FC48FE;stop-opacity:2.197748e-02"/>
					<stop  offset="0.1789" style="stop-color:#E66CF9;stop-opacity:0.2201"/>
					<stop  offset="0.3368" style="stop-color:#D489F5;stop-opacity:0.4187"/>
					<stop  offset="0.4935" style="stop-color:#C79EF2;stop-opacity:0.6157"/>
					<stop  offset="0.6483" style="stop-color:#C0AAF1;stop-opacity:0.8103"/>
					<stop  offset="0.7992" style="stop-color:#BDAEF0"/>
				</linearGradient>
				<polygon class="st18" points="412.7,177.8 376.7,240.1 306.2,240.1 342.1,177.8 				"/>
				
					<linearGradient id="SVGID_6_" gradientUnits="userSpaceOnUse" x1="2401.0134" y1="-2399.8208" x2="2528.3457" y2="-2272.4883" gradientTransform="matrix(0.51 0.8827 1 0 1427.0518 -2035.7577)">
					<stop  offset="3.802083e-03" style="stop-color:#FF43FF;stop-opacity:0"/>
					<stop  offset="0.1446" style="stop-color:#E961FA;stop-opacity:0.177"/>
					<stop  offset="0.3105" style="stop-color:#D57EF5;stop-opacity:0.3856"/>
					<stop  offset="0.476" style="stop-color:#C793F2;stop-opacity:0.5937"/>
					<stop  offset="0.6397" style="stop-color:#BE9FF0;stop-opacity:0.7995"/>
					<stop  offset="0.7992" style="stop-color:#BBA3EF"/>
				</linearGradient>
				<polygon class="st19" points="412.7,177.8 376.7,115.5 306.2,115.5 342.1,177.8 				"/>
			</g>
		</g>
		<g>
			
				<linearGradient id="SVGID_7_" gradientUnits="userSpaceOnUse" x1="-367.141" y1="43.9981" x2="-630.6649" y2="307.522" gradientTransform="matrix(0.8453 -0.487 0.866 0.5 611.1684 -229.8833)">
				<stop  offset="0" style="stop-color:#E9F8FF"/>
				<stop  offset="0.9967" style="stop-color:#E9F8FF;stop-opacity:0"/>
			</linearGradient>
			<polygon class="st20" points="454.2,113.2 341.8,177.9 229.6,113.2 339.1,50.1 			"/>
			
				<radialGradient id="SVGID_8_" cx="289.9432" cy="155.5574" r="111.2536" gradientTransform="matrix(0.8827 0.51 0 1 21.9169 -95.3209)" gradientUnits="userSpaceOnUse">
				<stop  offset="3.263889e-03" style="stop-color:#E9F8FF;stop-opacity:0"/>
				<stop  offset="0.876" style="stop-color:#E9F8FF;stop-opacity:0.8756"/>
				<stop  offset="1" style="stop-color:#E9F8FF"/>
			</radialGradient>
			<polygon class="st21" points="341.9,305.3 229.6,240.4 229.6,113.2 341.9,178.1 			"/>
			
				<radialGradient id="SVGID_9_" cx="128.3483" cy="247.0208" r="121.0954" gradientTransform="matrix(-0.8827 0.51 0 1 494.4033 -95.3209)" gradientUnits="userSpaceOnUse">
				<stop  offset="3.263889e-03" style="stop-color:#E9F8FF;stop-opacity:0"/>
				<stop  offset="0.8591" style="stop-color:#E9F8FF;stop-opacity:0.8587"/>
				<stop  offset="1" style="stop-color:#E9F8FF"/>
			</radialGradient>
			<polygon class="st22" points="341.9,305.3 454.2,240.4 454.2,113.2 341.9,178.1 			"/>
		</g>
	</g>
	<g>
		<path class="st23" d="M450.2,256.4c1.4,0.8,1.4,2.1,0,2.8c-1.4,0.8-3.6,0.8-4.9,0c-1.4-0.8-1.4-2.1,0-2.8
			C446.7,255.6,448.9,255.6,450.2,256.4z"/>
		<path class="st23" d="M457.9,252c1.4,0.8,1.4,2.1,0,2.8c-1.4,0.8-3.6,0.8-4.9,0c-1.4-0.8-1.4-2.1,0-2.8S456.5,251.2,457.9,252z"/>
		<path class="st23" d="M465.5,247.6c1.4,0.8,1.4,2.1,0,2.8c-1.4,0.8-3.6,0.8-4.9,0c-1.4-0.8-1.4-2.1,0-2.8S464.2,246.8,465.5,247.6
			z"/>
	</g>
	<g>
		<path class="st1" d="M472.7,17.3c0,8.4-6.8,15.3-15.3,15.3c-0.6,0-1.2,0-1.8-0.1c-1-0.1-1.9-0.3-2.8-0.6c-1.9-0.6-3.6-1.5-5-2.7
			c-0.5-0.4-0.9-0.8-1.4-1.2c-0.5-0.5-1-1.1-1.4-1.7c-0.8-1.1-1.4-2.3-1.9-3.6c-0.6-1.7-1-3.5-1-5.3c0-8.4,6.8-15.3,15.3-15.3
			c0.2,0,0.5,0,0.7,0c1.4,0.1,2.7,0.3,4,0.7c0.7,0.2,1.4,0.5,2.1,0.8c0.6,0.3,1.1,0.6,1.6,0.9c1.6,1,3,2.4,4.1,4
			c0.6,0.8,1,1.6,1.4,2.5C472.2,12.9,472.7,15,472.7,17.3z"/>
		<circle class="st2" cx="457.4" cy="17.3" r="12.5"/>
		<path class="st1" d="M468.2,17.3c0,5.5-4.1,10.1-9.4,10.7c-0.5,0.1-0.9,0.1-1.4,0.1c-0.6,0-1.2-0.1-1.8-0.1
			c-2-0.3-3.8-1.2-5.2-2.4c-0.5-0.4-0.9-0.8-1.3-1.3c-0.5-0.6-0.9-1.2-1.3-1.9c-0.7-1.4-1.2-2.9-1.2-4.5c0-0.2,0-0.3,0-0.5
			c0-5,3.4-9.2,8-10.5c0.9-0.2,1.8-0.4,2.8-0.4c0.6,0,1.3,0.1,1.9,0.2c0.8,0.1,1.5,0.3,2.2,0.6c0.6,0.2,1.1,0.5,1.7,0.8
			c1.7,1,3,2.5,3.9,4.2c0.5,0.9,0.8,2,1,3C468.2,16,468.2,16.6,468.2,17.3z"/>
	</g>
	<g>
		<ellipse class="st4" cx="43.2" cy="311.9" rx="40.2" ry="10.8"/>
		<polygon class="st24" points="21.8,298.2 17.7,301.7 17.7,305 21.4,311.8 25.4,313.7 24.1,306.3 23.8,300.7 		"/>
		
			<linearGradient id="SVGID_10_" gradientUnits="userSpaceOnUse" x1="28.4077" y1="652.889" x2="25.5535" y2="561.5554" gradientTransform="matrix(1 0 0 0.7447 0 -253.5421)">
			<stop  offset="0" style="stop-color:#9A24A4"/>
			<stop  offset="1" style="stop-color:#FF2AF4"/>
		</linearGradient>
		<polygon class="st25" points="28.4,244.9 28.4,277.7 18.9,299.1 25.4,304.2 38.1,280.1 41.5,251.1 		"/>
		<polygon class="st26" points="52.6,205.7 56.1,203 55.1,198.5 50.9,201.7 51.5,205.7 		"/>
		<polygon class="st27" points="53.6,205.7 48.8,214.9 42.7,211.3 49.8,204.7 		"/>
		<polygon class="st24" points="51.8,308.5 51.7,313.6 54.6,315.4 58.7,312.4 62.8,309.9 60.7,308 55.1,307.3 		"/>
		
			<linearGradient id="SVGID_11_" gradientUnits="userSpaceOnUse" x1="43.7437" y1="652.4125" x2="40.8932" y2="561.1944" gradientTransform="matrix(1 0 0 0.7447 0 -253.5421)">
			<stop  offset="0" style="stop-color:#9A24A4"/>
			<stop  offset="1" style="stop-color:#FF2AF4"/>
		</linearGradient>
		<polygon class="st28" points="49.9,253.3 56.4,279.9 57.8,308.5 51.2,309.8 46.3,280.3 33.7,250.4 		"/>
		<linearGradient id="SVGID_12_" gradientUnits="userSpaceOnUse" x1="36.1121" y1="235.2702" x2="68.6506" y2="171.8477">
			<stop  offset="0" style="stop-color:#4CC7EE"/>
			<stop  offset="1" style="stop-color:#42DB68"/>
		</linearGradient>
		<path class="st29" d="M31.5,201l17.5,7.3l1.6,31.3l2,12.8c-3.4,1.9-8.3,4.1-12.2,3.6c-11.3-1.7-13.3-7.8-13.3-7.8l0.2-44.5
			C27.4,201.6,29.5,200.2,31.5,201z"/>
		<path class="st26" d="M42.5,200.1l0.3,5.7l-6.5-1c-1-0.2-1.8-0.9-2-1.9l-0.9-5L42.5,200.1z"/>
		<path class="st30" d="M45,187.6l0.6,12.2c0.1,1.2-0.8,2.2-2,2.3c-2.4,0.2-6.1,0.1-8-2.2c-2.8-3.5-3.7-11.6-3.7-11.6L45,187.6z"/>
		<g>
			<linearGradient id="SVGID_13_" gradientUnits="userSpaceOnUse" x1="28.1104" y1="192.067" x2="46.6132" y2="192.067">
				<stop  offset="0" style="stop-color:#FF832A"/>
				<stop  offset="1" style="stop-color:#FF90AB"/>
			</linearGradient>
			<path class="st31" d="M46.6,187.5l-9,2.8l0.2,3.7c0,0-1.7-1.8-2.1-1c-0.5,0.8,0.4,4.3,1.9,4.3l-0.7,4.8l-3.5-1.2
				c0,0-4.5-6.3-5.3-11.2c-0.5-3.2,2.8-5.1,5.1-6.6c1.4-0.9,3-1.3,4.6-1.1l5.1,0.5c1.9,0.2,3.4,1.8,3.5,3.7L46.6,187.5z"/>
			<linearGradient id="SVGID_14_" gradientUnits="userSpaceOnUse" x1="31.9971" y1="184.8692" x2="49.0782" y2="184.8692">
				<stop  offset="0" style="stop-color:#FF832A"/>
				<stop  offset="1" style="stop-color:#FF90AB"/>
			</linearGradient>
			<path class="st32" d="M37.6,190.3c0,0,2,1.5,3.4,0c0,0,0.9-1.1,4.1-1.3c0.4,0,2.1,0.4,1.1-2.5c0,0,4-2.5,2.5-4.1
				c-1.6-1.6-4.1-0.5-4.1-0.5s0.8-3.1-1.5-3.2c-2.3-0.1-4.3,2.4-4.3,2.4s-1.9-3.4-4.5-1.5c-2.5,1.9-2.4,4.4-2.4,4.4L37.6,190.3z"/>
		</g>
		<polygon class="st30" points="45.1,255.4 45.4,256.7 47.7,260.6 47.4,261.4 48.3,262.1 51.8,261.4 52.6,259.3 48.2,255 		"/>
		<linearGradient id="SVGID_15_" gradientUnits="userSpaceOnUse" x1="57.6268" y1="209.536" x2="43.0209" y2="243.0951">
			<stop  offset="0" style="stop-color:#8048ED"/>
			<stop  offset="0.1932" style="stop-color:#8747EE"/>
			<stop  offset="0.4834" style="stop-color:#9C46F0"/>
			<stop  offset="0.8329" style="stop-color:#BD43F3"/>
			<stop  offset="1" style="stop-color:#D041F5"/>
		</linearGradient>
		<path class="st33" d="M48,207.9c-3.3-1.4-7.7,29.2-7.7,29.2l4.1,18.9l4.5-0.7l-2.4-18.1c0,0,3.3-10.5,4.9-16.9
			C52.7,215,52.4,209.7,48,207.9z"/>
		<g>
			<polygon class="st34" points="50,203 54.6,205 56.9,197 52.3,195 			"/>
			<polygon class="st35" points="50.9,202.6 54.2,204 56.1,197.4 52.7,196 			"/>
		</g>
		<polygon class="st30" points="49.8,205.3 49.4,200.8 50.4,198.7 51,199.1 50.8,200.8 52.1,204.1 52.1,205.7 		"/>
		<polygon class="st30" points="53.6,202.1 53.7,203 56.1,203 55.8,201.7 56.4,200.8 54.8,198.8 54.5,199.7 55,201.6 		"/>
	</g>
	<g>
		
			<ellipse transform="matrix(0.2093 -0.9779 0.9779 0.2093 -141.8194 288.7611)" class="st4" cx="107.6" cy="232.1" rx="13.4" ry="34.2"/>
		<polygon class="st36" points="97.1,149.8 123.4,162 134.1,140.4 106.5,129.8 		"/>
		<polygon class="st37" points="99.6,149.1 122.2,159.4 131.2,141.3 107.5,132.2 		"/>
		<polygon class="st38" points="94,226.4 92.5,232 92.5,233.6 95.4,234.6 103,230.5 102.3,228.9 97.7,228.2 		"/>
		<linearGradient id="SVGID_16_" gradientUnits="userSpaceOnUse" x1="84.7483" y1="221.3358" x2="121.0926" y2="161.1797">
			<stop  offset="0" style="stop-color:#2B237C"/>
			<stop  offset="1" style="stop-color:#180DD1"/>
		</linearGradient>
		<path class="st39" d="M106.5,176.8l-2.8,26.4l-5.5,25l-5.8-1.4c0,0,3-18.6,5.8-24.3l-3.3-27.5L106.5,176.8z"/>
		<linearGradient id="SVGID_17_" gradientUnits="userSpaceOnUse" x1="94.0918" y1="226.9809" x2="130.4361" y2="166.8248">
			<stop  offset="0" style="stop-color:#2B237C"/>
			<stop  offset="1" style="stop-color:#180DD1"/>
		</linearGradient>
		<path class="st40" d="M116.3,176.4l5,55.6l-6.1-1.1c0,0-5.1-20.3-2.7-25.2l-8.9-22l-7.3-7.3l5-11.8L116.3,176.4z"/>
		<path class="st2" d="M90.7,133.6c-5.4,0.5-4.4,28.4-4.4,28.4l12.7-3.9v-3.8l-7.7,1.3l1.4-8L90.7,133.6z"/>
		<path class="st41" d="M110.8,117.3c0,0,0.3,7.5-1.8,11.8c-0.4,0.8-1.3,1-2,0.5l-2.1-0.7l-0.1,5.3l-7.6-0.6v-4.1l2.3-12.7
			L110.8,117.3z"/>
		<path class="st36" d="M107,119.3l-0.5,2.5c0,0-1.7-0.5-2.2,0.2c-0.5,0.7-0.3,2.6,1.1,3.7l-2.6-0.5c0,0-5.8,0.7-7.5-2
			c0,0-1.8-5.3,2.3-9.4c0,0,0.8-1.4,3.5-2.4c3.3-1.2,8.3-0.3,9.6,3.7C112.1,119.5,107,119.3,107,119.3z"/>
		<linearGradient id="SVGID_18_" gradientUnits="userSpaceOnUse" x1="110.5061" y1="174.4997" x2="129.7577" y2="218.5071">
			<stop  offset="0" style="stop-color:#FF832A"/>
			<stop  offset="1" style="stop-color:#FF90AB"/>
		</linearGradient>
		<path class="st42" d="M94.4,134.1l0.9-1.9c0,0,6.1-0.3,10.7,1.2l0.2,2.3l6.7,2.5c0,0,3.9,25.7,5.2,40.9c0,0-1.8,1.9-7.3,2
			c-5.4,0.1-7.9-1.1-7.9-1.1l-2.3-8.8l-0.6,8.6c0,0-4.4-0.1-6.7-2.5c0,0,1.2-14.4,0.6-16.8c-0.6-2.3-5-16.3-4.9-24.9
			c0-1.3,1.2-2.3,2.5-2L94.4,134.1z"/>
		<path class="st2" d="M112.9,138.2c2.6,0.1,5.6,21.3,5.6,21.3l6.5-0.1c0,0,0.6,2.4,0,4.7l-12,2.7c0,0-3.6-16.4-4.2-20
			C108.3,143.2,109.5,138.1,112.9,138.2z"/>
		<polygon class="st38" points="116.3,230.5 116.3,235.7 116.3,237.3 119.4,238.9 126.7,233.6 125.8,232.6 120.9,232.6 120,230.9 		
			"/>
		<ellipse class="st36" cx="97.8" cy="112.4" rx="3.3" ry="3.1"/>
	</g>
</g>
</svg>
